<svg width="657" height="461" viewBox="0 0 657 461" fill="none" xmlns="http://www.w3.org/2000/svg">
<g clip-path="url(#clip0)">
<path d="M436.257 139.074L337.677 89.9816L432.844 143.012L530.045 208.382L436.257 139.074Z" fill="#8C8C8C"/>
<path d="M535.886 356.907L551.637 364.324L580.713 434.222L536.476 403.178L515.015 399.896L515.671 413.614L479.377 394.777L438.028 365.308L456.077 313.393L465.725 303.417L518.69 329.342L535.886 356.907Z" fill="#CB3805"/>
<path d="M459.819 315.691L443.148 363.668L481.609 391.102L511.012 406.394L510.487 394.843L538.118 399.109L571.065 422.277L548.357 367.54L532.933 360.189L515.672 332.624L466.645 308.602L459.819 315.691Z" fill="#F68857"/>
<path d="M457.456 359.861L468.942 322.122L509.371 342.731L521.841 363.405L506.089 352.116L494.144 351.919L515.409 368.853L539.102 375.416L551.31 397.928L535.69 386.508L515.54 384.342L493.816 371.347L495.391 378.632L501.889 390.577L484.956 380.666L457.456 359.861Z" fill="white"/>
<path d="M511.143 224.527L588.523 208.119L647.526 228.531L656.321 281.627L614.907 309.98L549.209 310.505L480.952 293.441L419.783 260.428L414.664 217.57L511.143 224.527Z" fill="#310401"/>
<path d="M423.852 258L419.52 221.902L511.471 228.531L588.195 212.254L643.654 231.419L651.661 279.855L613.463 305.977L549.8 306.502L482.658 289.766L423.852 258Z" fill="#CB3805"/>
<path d="M420.964 222.033L511.471 228.531L588.195 212.254L643.654 231.419L594.233 233.388L518.887 246.252L436.519 234.438L420.964 222.033Z" fill="#ED6437"/>
<path d="M423.852 258L423.064 251.24L435.862 243.692L489.812 275.327L551.637 292.325L612.806 289.635L651.661 279.855L613.463 305.977L549.8 306.502L482.658 289.766L423.852 258Z" fill="#780500"/>
<path d="M643.654 231.419L604.078 217.767L624.489 232.206L632.234 284.712L615.891 305.846L651.661 279.855L643.654 231.419Z" fill="#401715"/>
<path d="M546.78 221.049L575.79 214.88L598.039 233.191L604.208 289.963L592.263 306.174L570.342 306.371L577.956 291.144L568.833 237.72L546.78 221.049Z" fill="#401715"/>
<path d="M522.365 299.676L549.8 306.502L551.637 292.325L543.039 242.117L520.725 226.562L511.47 228.531L499.854 227.678L524.531 245.267L527.222 285.565L522.365 299.676Z" fill="#401715"/>
<path d="M482.658 289.766L501.56 294.491L506.483 279.921L499.066 243.429L484.496 226.562L469.138 225.446L479.377 240.607L487.121 273.752L482.658 289.766Z" fill="#401715"/>
<path d="M446.167 270.01L460.081 277.558L469.729 263.579L464.806 238.507L454.371 224.396L440.719 223.412L450.761 237.129L453.189 253.865L446.167 270.01Z" fill="#401715"/>
<path d="M382.438 247.039L394.646 246.252L413.548 244.151L432.713 242.051L447.02 241.329L448.136 241.395L449.055 241.92L557.479 294.623L558.201 295.016L558.726 295.607L565.552 302.695L574.872 312.212L476.883 320.547L479.902 326.914L480.821 328.817L480.033 330.72L472.158 350.541L471.632 351.788L470.648 352.576L461.788 359.598L507.139 418.995L498.345 430.415L421.424 383.882L424.64 397.009L412.17 396.024L341.156 363.799L324.879 319.76L266.27 292.129L103.83 211.992L103.174 211.729L102.714 211.204L58.1501 168.281L57.6251 167.756L57.2969 167.099L37.1479 129.295L31.3722 111.115L30.8472 109.474L31.5035 107.899L42.0703 81.5807L42.4641 80.5963L43.186 79.8087L47.9772 75.1488L63.0725 60.119L64.3852 58.8064L66.2229 58.6751L84.2717 57.7563H84.7311L85.1906 57.8219L126.604 63.5975L127.326 63.6632L127.983 63.9913L184.754 90.1785L185.345 90.5067L185.87 90.9005L327.176 205.494L382.438 247.039Z" fill="#3B3939"/>
<path d="M64.3849 74.2299C64.7787 75.6082 65.2381 77.0521 65.6319 78.4304C66.0257 79.8087 66.4851 81.2526 66.9446 82.6309C66.0913 84.6655 65.3038 86.7001 64.5162 88.8003C63.7286 90.9005 62.941 92.9351 62.1534 95.0353C60.5782 96.6105 59.0031 98.12 57.4279 99.6296C55.8527 101.205 54.2776 102.714 52.7024 104.224C51.2585 104.289 49.7489 104.421 48.3707 104.552C46.9268 104.618 45.4828 104.749 44.1046 104.88C43.6451 103.502 43.1857 102.058 42.7919 100.68C42.3981 99.2358 41.9387 97.9231 41.5449 96.4792C42.3325 94.379 43.1201 92.2788 43.9733 90.2442C44.7609 88.144 45.5485 86.0437 46.3361 84.0091C47.9112 82.434 49.4864 80.8588 51.0616 79.3493C52.6368 77.7741 54.2119 76.2645 55.7871 74.755C57.1654 74.6894 58.6093 74.6237 60.1188 74.5581C61.4971 74.3612 62.941 74.2956 64.3849 74.2299Z" fill="#706C6C"/>
<path d="M182.523 95.2322C186.068 105.799 189.612 116.235 193.156 126.67C239.426 162.636 285.763 198.143 332.887 232.075C379.814 265.81 427.528 297.97 475.308 329.605C473.077 324.945 470.911 320.285 468.679 315.625C420.112 281.431 371.544 246.58 323.961 209.957C276.18 173.138 229.319 134.48 182.523 95.2322Z" fill="#8C8C8C"/>
<path d="M475.308 329.605C427.528 297.97 379.813 265.81 332.886 232.075C285.762 198.209 239.426 162.702 193.155 126.736C187.248 141.831 181.341 156.861 175.435 171.956C223.477 203.197 271.586 234.11 320.285 263.71C368.852 293.244 418.076 321.532 467.366 349.491C470.057 342.862 472.682 336.233 475.308 329.605Z" fill="#706C6C"/>
<path d="M467.432 349.425C418.142 321.466 368.918 293.179 320.35 263.644C271.651 234.044 223.543 203.131 175.5 171.891C163.49 182.982 151.413 194.271 139.337 205.625C190.596 233.191 241.92 260.56 293.572 286.944C345.225 313.262 397.337 338.662 449.514 363.799C455.421 359.008 461.394 354.151 467.432 349.425Z" fill="#5E5858"/>
<path d="M327.11 303.877L388.739 334.461L364.324 299.545L327.11 303.877Z" fill="#4F4949"/>
<path d="M407.247 347.719L335.577 313.328L350.935 359.401L418.142 392.349L407.247 347.719Z" fill="#3B3939"/>
<path d="M105.799 208.382C116.956 207.463 128.114 206.544 139.271 205.625C190.53 233.191 241.854 260.56 293.507 286.944C345.159 313.262 397.271 338.662 449.449 363.799C443.607 363.996 437.766 364.193 431.925 364.39C377.188 339.515 322.385 314.378 268.107 288.388C213.764 262.463 159.683 235.488 105.799 208.382Z" fill="#4F4949"/>
<path d="M119.188 134.349C137.893 146.95 156.664 159.552 175.435 171.956C181.276 156.861 187.248 141.765 193.155 126.736C173.531 116.431 153.842 106.062 134.283 95.6917C129.23 108.556 124.242 121.485 119.188 134.349Z" fill="#8C8C8C"/>
<path d="M134.283 95.6917C153.842 106.062 173.466 116.431 193.155 126.736C189.611 116.3 186.067 105.799 182.523 95.2979C163.555 86.5688 144.588 77.7741 125.686 69.045C128.573 77.9053 131.396 86.8313 134.283 95.6917Z" fill="#F5F5F5"/>
<path d="M119.188 134.349C137.893 146.95 156.664 159.552 175.435 171.956C163.424 183.048 151.348 194.337 139.272 205.691C122.404 191.646 105.668 177.535 88.9976 163.161C99.0393 153.448 109.147 143.866 119.188 134.349Z" fill="#706C6C"/>
<path d="M88.997 163.161C105.668 177.469 122.469 191.646 139.271 205.691C128.114 206.544 116.956 207.463 105.799 208.448C90.9004 194.271 76.0675 179.963 61.3003 165.524C70.5544 164.671 79.7429 163.883 88.997 163.161Z" fill="#4F4949"/>
<path d="M134.283 95.6916C131.395 86.8313 128.573 77.971 125.685 69.045C111.903 67.076 98.0542 65.1071 84.2715 63.2694C86.1092 69.2419 87.9469 75.2144 89.8502 81.1213C104.683 85.9781 119.516 90.8349 134.283 95.6916Z" fill="#D9D9D9"/>
<path d="M134.284 95.6916C119.451 90.8349 104.684 85.9781 89.8507 81.1213C86.4378 89.8504 83.025 98.5138 79.6777 107.243C92.8042 116.3 105.931 125.357 119.188 134.349C124.242 121.485 129.23 108.556 134.284 95.6916Z" fill="#5E5858"/>
<path d="M88.9976 163.162C79.7434 163.883 70.5549 164.671 61.3008 165.459C54.5407 153.12 47.9118 140.65 41.3486 128.114C47.4524 127.589 53.4906 127.129 59.66 126.67C69.3735 138.943 79.1527 151.085 88.9976 163.162Z" fill="#3B3939"/>
<path d="M88.9972 163.161C79.218 151.085 69.3732 138.943 59.6597 126.67C66.3541 120.172 73.0486 113.675 79.7431 107.243C92.8695 116.3 105.996 125.357 119.254 134.349C109.146 143.866 99.0389 153.448 88.9972 163.161Z" fill="#4F4949"/>
<path d="M66.9449 82.6309C66.0261 79.8087 65.2385 76.9865 64.3853 74.2299C71.0141 70.5545 77.6429 66.9448 84.3374 63.2694C86.1751 69.2419 88.0128 75.2144 89.9161 81.1213C82.2372 81.6464 74.6239 82.1058 66.9449 82.6309Z" fill="#8C8C8C"/>
<path d="M89.8506 81.1213C82.2372 81.5807 74.5583 82.1058 66.945 82.6308C65.3042 86.7657 63.729 90.9005 62.1538 95.0353C67.9951 99.1045 73.8363 103.239 79.6776 107.243C83.0905 98.5138 86.4377 89.8504 89.8506 81.1213Z" fill="#5E5858"/>
<path d="M55.7876 74.6894C58.6098 74.5581 61.4976 74.3612 64.3198 74.2299C70.9486 70.5545 77.5775 66.9448 84.2719 63.2694C78.2338 63.5975 72.2613 63.8601 66.2231 64.1882C62.7446 67.6667 59.2661 71.1452 55.7876 74.6894Z" fill="#8C8C8C"/>
<path d="M52.703 104.158C49.8152 104.355 46.993 104.552 44.1052 104.749C43.1207 112.559 42.2019 120.304 41.3486 128.048C47.4524 127.523 53.4906 127.064 59.66 126.604C57.2972 119.188 55.0001 111.706 52.703 104.158Z" fill="#3B3939"/>
<path d="M59.6596 126.67C57.2969 119.254 54.9998 111.706 52.7026 104.224C55.853 101.205 59.0033 98.12 62.1537 95.0353C67.9949 99.1045 73.8362 103.239 79.6774 107.243C73.0486 113.675 66.3541 120.172 59.6596 126.67Z" fill="#4F4949"/>
<path d="M41.5452 96.4136C42.3984 99.1702 43.2516 101.992 44.1048 104.815C43.1203 112.625 42.2015 120.369 41.3483 128.114C39.4449 122.207 37.5416 116.3 35.7695 110.328C37.6072 105.668 39.5762 101.073 41.5452 96.4136Z" fill="#5E5858"/>
<path d="M453.255 254.521C441.507 255.112 400.881 263.316 389.133 263.972C419.192 284.909 435.666 296.001 465.988 316.216L561.942 306.699C517.575 283.596 497.229 278.411 453.255 254.521Z" fill="#4F4949"/>
<path d="M446.495 246.842C448.727 249.402 450.958 251.962 453.255 254.521C441.507 255.112 400.881 263.316 389.133 263.972C386.507 260.166 383.882 256.293 381.257 252.421C393.399 253.077 434.353 246.12 446.495 246.842Z" fill="#706C6C"/>
<path d="M554.985 299.545L561.877 306.765L453.256 254.521L446.496 246.842L554.985 299.545Z" fill="#D9D9D9"/>
<path d="M396.55 353.954L364.324 299.545L448.727 351.394L500.839 419.652L396.55 353.954Z" fill="#D9D9D9"/>
<path d="M364.324 299.545L355.332 310.834L391.495 360.911L396.549 353.954L364.324 299.545Z" fill="#8C8C8C"/>
<path d="M500.839 419.652L496.901 424.705L391.496 360.911L396.549 353.954L500.839 419.652Z" fill="#706C6C"/>
<path d="M5.25057 52.1119C21.593 62.8099 38.5261 71.4077 54.9997 81.9089C55.131 82.4339 55.2622 82.959 55.4591 83.4184C55.5904 83.9435 55.7217 84.4029 55.9842 84.9279C55.656 85.6499 55.3279 86.3718 55.0653 87.1594C54.7372 87.8814 54.4747 88.669 54.2121 89.3909C53.6214 89.916 53.0307 90.441 52.5713 91.0317C51.9806 91.5568 51.3899 92.1475 50.8649 92.6725C50.3398 92.7382 49.8148 92.7382 49.3553 92.7382C48.8303 92.8038 48.3052 92.8038 47.8458 92.8038C32.3566 80.8587 16.3424 70.817 0.984482 58.6751C0.590689 57.7562 0.262528 56.7061 0 55.7216C0.721953 54.6059 1.44391 53.4902 2.16586 52.3744C3.15034 52.2431 4.13482 52.1775 5.25057 52.1119Z" fill="#3B3939"/>
<path d="M418.142 392.349L413.154 391.955L344.766 360.911L350.935 359.401L418.142 392.349Z" fill="#8C8C8C"/>
<path d="M328.489 316.872L344.766 360.911L350.935 359.402L339.45 321.991L328.489 316.872Z" fill="#5E5858"/>
<path d="M202.475 111.903L208.644 131.658L245.595 157.255L252.814 172.875L361.37 254.521L358.154 235.422L202.54 111.968L202.475 111.903Z" fill="#5E5858"/>
<path d="M361.369 254.521L252.814 172.875L235.159 204.575L230.827 207.66L369.245 302.17L361.369 254.521Z" fill="#3B3939"/>
<path d="M369.246 302.17L230.828 207.66L189.217 237.457L198.865 246.383L265.547 272.505L279.067 279.527L301.251 269.157L314.771 276.443L306.042 293.244L351.262 318.644L371.083 313.459L369.246 302.17Z" fill="#3B3939"/>
<path d="M324.157 315.362L346.931 327.964L363.47 318.053L354.544 306.239L324.157 315.362Z" fill="#5A7596"/>
<path d="M264.038 286.484L258.196 283.662L272.373 276.049L279.133 279.527L264.038 286.484ZM306.042 293.244L351.853 318.447L339.449 325.863L312.474 309.39L306.042 293.244Z" fill="#3B3939"/>
<path d="M363.995 317.725L354.544 306.239L368.589 314.969L363.995 317.725Z" fill="#F5F5F5"/>
<path d="M354.544 306.239L346.537 318.513L352.575 324.551L363.995 317.725L354.544 306.239Z" fill="#7790AE"/>
<path d="M334.592 335.38L330.522 333.28L332.623 336.496L334.592 335.38Z" fill="#5A7596"/>
<path d="M372.987 162.702L420.045 197.421L442.36 243.101L419.52 300.595L393.333 319.432L397.009 324.485L389.133 336.102L335.774 346.144L304.861 329.408L302.892 311.884L320.219 309.915L308.536 299.611L328.226 266.138L309.324 256.95L238.507 293.901L195.715 287.797L160.339 270.273L145.703 247.63L189.611 239.098L235.882 211.86L260.559 182.26L257.868 152.792L289.963 130.477L350.869 127.261L372.987 162.702Z" fill="#310401"/>
<path d="M291.604 135.202L262.922 155.154L265.548 183.836L239.032 215.602L191.318 243.626L153.645 250.977L163.687 266.532L197.159 283.137L237.654 288.913L324.354 243.626L312.737 253.209L331.442 262.332L346.144 245.136L314.706 298.626L355.726 334.658L327.439 318.644L307.421 313.984L309.718 327.176L335.052 341.287L386.18 331.902L391.102 324.616L388.149 320.547L364.39 334.264L415.583 297.51L436.979 243.495L417.224 201.294L369.443 166.181L348.31 132.183L291.604 135.202Z" fill="#CB3805"/>
<path d="M273.03 148.132L262.922 155.154L265.548 183.836L255.834 195.518L282.874 177.075L321.86 174.253L273.03 148.132Z" fill="#780500"/>
<path d="M220.787 226.365L191.318 243.626L153.645 250.977L163.687 266.532L197.159 283.137L237.654 288.913L247.827 283.596L267.385 241.132L255.047 225.84L220.787 226.365Z" fill="#401715"/>
<path d="M291.603 135.202L290.225 136.974L360.911 201.556L392.677 204.247L365.374 232.994L394.777 258.919L436.978 243.495L417.223 201.294L369.443 166.181L348.31 132.183L291.603 135.202Z" fill="#ED6437"/>
<path d="M318.775 291.735L314.706 298.626L355.726 334.658L327.373 316.15L307.421 313.984L308.537 326.52L335.052 341.287L386.179 331.902L391.102 324.616L388.148 320.547L364.39 334.264L415.583 297.51L424.509 275.064L355.726 317.988L318.775 291.735Z" fill="#401715"/>
<path d="M312.737 253.209L321.335 246.12L343.059 248.811L331.442 262.332L312.737 253.209Z" fill="#780500"/>
<path d="M294.294 5.77563L288.65 29.6657L319.3 46.4675L375.35 63.6632L390.052 75.9364L364.455 99.4983L366.227 112.362L358.548 133.89L337.415 139.928L338.005 166.902L329.276 159.092L327.373 175.369L273.03 164.343L244.151 152.529L211.795 130.608L173.203 91.0317L185.87 80.6619L174.581 77.4459L197.553 63.4006L191.252 42.3327L205.232 24.2839L219.408 19.4927L275.983 0C282.546 2.0346 286.615 3.34724 294.294 5.77563Z" fill="#310401"/>
<path d="M333.936 62.6131C398.453 37.3447 330.392 141.306 332.558 135.53L330.851 135.137L330.589 133.364C327.767 113.544 315.428 71.6703 333.936 62.6131Z" fill="#310401"/>
<path d="M264.563 24.6121C226.891 -5.70999 192.499 81.8433 203.919 65.0414L205.166 66.2884L206.807 65.5665C224.987 57.2968 266.926 45.1549 264.563 24.6121Z" fill="#310401"/>
<path d="M319.563 52.3088L330.589 61.2348L331.377 91.5568L339.712 88.8659L333.346 97.7262L340.762 104.814L331.639 104.289L332.82 156.533L325.47 149.904L323.041 170.118L274.999 161.258L242.839 146.622L213.239 127.458L179.832 91.7537L195.649 78.8242L186.067 76.1332L230.697 49.0272L225.381 41.6108L235.357 44.0391L239.36 33.9318L241.592 42.3983L263.513 26.9748L263.776 31.1752L281.693 31.6347L319.563 52.3088Z" fill="#CB3805"/>
<path d="M238.311 100.877L221.706 76.724L232.404 61.4317L203.919 90.1785L205.626 119.319L213.239 127.458L245.661 150.298L274.999 161.258L303.811 145.113L309.456 106.587L289.504 121.813L275.196 121.091L260.101 104.88L238.311 100.877Z" fill="#780500"/>
<path d="M331.639 85.5843L331.377 91.5568L339.712 88.8659L333.346 97.7262L340.762 104.814L331.639 104.289L332.821 156.533L325.47 149.904L323.041 170.118L301.055 166.049L319.038 162.505L331.245 85.5186L331.639 85.5843Z" fill="#ED6437"/>
<path d="M257.606 99.1701L265.416 116.694L275.721 121.944L275.064 137.04L250.977 149.772L245.202 149.969L224.199 135.071L212.254 108.752L218.686 94.7071L228.925 92.8694L244.939 92.2787L257.606 99.1701Z" fill="#FEE7D5"/>
<path d="M240.345 135.071L262.594 125.882L275.064 137.04L250.977 149.772L245.202 149.969L224.199 135.071L212.254 108.752L216.914 100.023L219.408 105.471L219.933 109.081L222.034 124.242L240.345 135.071Z" fill="#F0BC95"/>
<path d="M269.485 77.0521L278.083 59.0689L291.997 63.9257L282.481 80.0712L269.485 77.0521Z" fill="#F0BC95"/>
<path d="M296.395 78.1022L293.507 68.4543L285.631 81.6463L291.21 84.0091L296.395 78.1022Z" fill="#F0BC95"/>
<path d="M325.404 73.9674L330.589 61.2347L372.265 69.1106L382.438 77.6428L357.498 97.7262L360.78 110.984L343.584 125.226L357.498 120.369L354.544 130.411L335.971 135.727L331.901 113.675L346.997 110.196L346.931 94.904L362.355 79.2179L331.245 85.5186L325.404 73.9674Z" fill="#FEE7D5"/>
<path d="M335.971 135.727L331.836 113.675L346.931 110.196L346.866 94.8384L362.355 79.1523L349.622 96.2823L352.51 108.752L343.584 125.16L335.971 135.727ZM362.355 79.218L331.245 85.5187L325.404 73.9674L333.542 80.3994L362.355 79.218Z" fill="#F0BC95"/>
<path d="M330.589 61.2348L319.563 52.3088L372.266 69.1106L330.589 61.2348Z" fill="#780500"/>
<path d="M238.77 93.7883L229.45 84.0748L228.728 80.2025L238.507 76.2645L244.545 81.9089L243.955 92.6069L238.77 93.7883Z" fill="#310401"/>
<path d="M238.572 79.4149L243.232 84.1404L241.92 91.0974L237.654 92.5413L231.55 86.2406L232.337 81.9745L238.572 79.4149Z" fill="#780500"/>
<path d="M238.901 81.6463L242.445 84.9936L241.658 89.5878L237.129 90.9005L233.65 87.8814L234.372 83.2215L238.901 81.6463Z" fill="#310401"/>
<path d="M241.592 81.5807L243.364 83.2871L242.839 86.0437L240.28 86.8313L238.311 85.0592L238.704 82.4339L241.592 81.5807Z" fill="#FEE7D5"/>
<path d="M244.545 81.8433L243.364 92.8038L247.433 91.2287L248.746 80.465L238.835 71.3421L227.021 75.6082L228.728 80.2025L237.851 76.5927L244.545 81.8433Z" fill="#FEE7D5"/>
<path d="M282.481 109.54L278.018 98.3826L268.698 96.7418L259.969 103.305L264.957 109.277L279.921 110.656L282.481 109.54Z" fill="#310401"/>
<path d="M300.398 147.016L274.999 161.258L301.054 166.049L315.69 152.988L313.262 142.094L319.366 145.309L309.455 106.587L300.398 147.016Z" fill="#FEE7D5"/>
<path d="M257.606 99.1701L261.15 90.9661L257.212 88.8003L253.209 86.6344L244.939 92.2788L257.606 99.1701Z" fill="#ED6437"/>
<path d="M276.508 100.023L268.829 98.5794L263.973 103.699L266.335 109.277L275.721 110.262L279.134 107.112L276.508 100.023Z" fill="#780500"/>
<path d="M275.064 101.008L270.01 100.023L266.794 103.436L268.698 107.965L273.489 109.081L276.771 105.733L275.064 101.008Z" fill="#310401"/>
<path d="M270.601 100.089L268.042 99.6295L266.138 101.73L267.188 104.289L269.945 104.946L271.783 103.042L270.601 100.089Z" fill="#FEE7D5"/>
<path d="M274.342 48.1084L315.362 50.0117L298.757 40.9545L282.218 31.8972L274.342 48.1084Z" fill="#ED6437"/>
<path d="M274.999 161.258L284.384 155.942L300.398 157.255L310.309 150.429L313.262 142.094L315.69 152.989L301.054 166.049L274.999 161.258Z" fill="#F0BC95"/>
<path d="M291.997 63.9257L278.083 59.0689L270.667 74.6894L277.755 75.5426L291.997 63.9257Z" fill="#FEE7D5"/>
<path d="M296.395 78.1022L293.507 68.4543L289.503 80.465L296.395 78.1022Z" fill="#FEE7D5"/>
<path d="M246.449 38.9199L241.592 42.3984L239.36 33.9318L235.357 44.0392L225.381 41.6108L230.697 49.0272L186.067 76.1333L195.649 78.8242L179.832 91.7537L195.124 108.096L188.43 91.0318L246.711 39.248L246.449 38.9199Z" fill="#ED6437"/>
<path d="M259.378 70.9483L272.045 55.4591L261.675 44.958L251.174 60.4472L259.378 70.9483Z" fill="#F0BC95"/>
<path d="M245.399 50.6024L255.375 49.0928L246.843 61.8911L242.314 57.8219L245.399 50.6024Z" fill="#F0BC95"/>
<path d="M263.775 31.1752L281.693 31.6347L288.453 9.77917L263.775 31.1752Z" fill="#780500"/>
<path d="M203.919 90.1785L205.625 119.319L191.121 102.452L194.73 79.6118L201.097 76.724L195.124 73.3111L233.06 60.7754L203.919 90.1785Z" fill="#FEE7D5"/>
<path d="M205.625 119.319L204.969 108.49L197.487 98.7107L199.259 82.6965L201.097 76.7239L194.73 79.6118L191.121 102.452L205.625 119.319Z" fill="#F0BC95"/>
<path d="M261.675 44.958L272.045 55.4591L261.084 68.8481L257.278 62.8099L261.675 44.958Z" fill="#FEE7D5"/>
<path d="M245.398 50.6024L255.375 49.0928L246.252 57.8219L245.398 50.6024Z" fill="#FEE7D5"/>
<path d="M263.776 31.1752L268.961 25.5965L288.453 9.77916L275.786 5.7756L222.296 23.7588L209.367 28.0905L206.61 50.2742L203.197 35.9664L196.372 43.7766L201.885 62.2849L222.69 53.8839L217.439 39.3136L230.435 31.1096L262.397 21.8555L246.449 38.9198L263.776 31.1752Z" fill="#FEE7D5"/>
<path d="M201.885 62.2849L222.69 53.884L217.505 39.248L230.435 31.044L262.398 21.7899L227.678 29.6001L215.668 33.8662L206.676 50.2742L201.885 62.2849ZM262.398 21.8555L246.515 38.9855L263.841 31.1753L256.622 31.8316L262.398 21.8555Z" fill="#F0BC95"/>
<path d="M267.976 97.2668L259.969 103.305L258.525 99.0389L267.648 92.6725L280.38 94.2477L287.337 108.227L282.481 109.54L278.018 98.3825L267.976 97.2668Z" fill="#FEE7D5"/>
<path d="M238.901 96.0854L247.892 99.4983L247.761 102.255L236.078 104.814L233.519 109.212L234.109 110.984L243.364 119.713L259.312 123.06L262.791 120.172L264.038 121.223L262.331 126.67L259.115 125.16L240.935 122.47L230.106 112.1L227.152 111.443L219.933 109.081L219.408 105.471L216.52 105.34L216.914 100.023L218.817 99.5639L220.524 105.733L228.924 108.162L230.762 107.702L233.125 103.174L228.924 91.9506L231.222 90.3754L238.901 96.0854Z" fill="#310401"/>
<path d="M238.769 96.348L247.892 99.4983L256.753 98.7107L244.939 92.2788L231.222 90.3754L238.769 96.348Z" fill="#F0BC95"/>
<path d="M148.001 226.234H148.066L163.227 237.26L163.949 237.785L164.409 240.148L166.903 252.881L142.422 253.996L138.025 249.468L122.995 244.48L121.551 238.704L110.919 233.65L110.722 217.636L133.693 214.748L148.001 226.234Z" fill="#310401"/>
<path d="M116.497 230.106L116.366 222.559L132.052 220.59L141.24 227.94L131.592 233.453L146.491 232.01L155.089 238.31L147.607 241.789L159.158 242.576L160.142 247.564L144.653 248.286L141.109 244.611L127.654 240.148L126.342 234.766L116.497 230.106Z" fill="#401715"/>
<path d="M469.992 185.673L374.234 138.221L464.15 192.105L646.411 311.621L469.992 185.673Z" fill="#8C8C8C"/>
<path d="M288.322 369.049L218.03 315.756L299.873 366.621L479.18 461L288.322 369.049Z" fill="#8C8C8C"/>
<path d="M209.104 289.109L163.228 252.815L211.205 284.318L311.753 344.437L209.104 289.109Z" fill="#8C8C8C"/>
</g>
<defs>
<clipPath id="clip0">
<rect width="656.321" height="461" fill="white"/>
</clipPath>
</defs>
</svg>
